<svg width="24" height="24" viewBox="0 0 24 24" fill="none" xmlns="http://www.w3.org/2000/svg">
<path d="M14.9531 7.4375C15.0625 7.4375 15.2318 7.45052 15.4609 7.47656C15.6953 7.4974 15.9609 7.55469 16.2578 7.64844C16.5547 7.74219 16.8568 7.89323 17.1641 8.10156C17.4714 8.3099 17.7552 8.60156 18.0156 8.97656C17.9896 8.99219 17.8906 9.0625 17.7188 9.1875C17.5521 9.3125 17.362 9.49479 17.1484 9.73438C16.9349 9.96875 16.7474 10.2682 16.5859 10.6328C16.4297 10.9922 16.3516 11.4219 16.3516 11.9219C16.3516 12.4948 16.4505 12.9792 16.6484 13.375C16.8516 13.7708 17.0859 14.0911 17.3516 14.3359C17.6224 14.5807 17.862 14.7604 18.0703 14.875C18.2839 14.9844 18.3984 15.0417 18.4141 15.0469C18.4089 15.0677 18.3698 15.1849 18.2969 15.3984C18.224 15.6068 18.1094 15.8776 17.9531 16.2109C17.8021 16.5391 17.6042 16.8828 17.3594 17.2422C17.1354 17.5599 16.9036 17.8646 16.6641 18.1562C16.4297 18.4479 16.1719 18.6849 15.8906 18.8672C15.6146 19.0547 15.3021 19.1484 14.9531 19.1484C14.6875 19.1484 14.4609 19.1172 14.2734 19.0547C14.0859 18.9922 13.9062 18.9193 13.7344 18.8359C13.5677 18.7578 13.3828 18.6875 13.1797 18.625C12.9766 18.5625 12.724 18.5312 12.4219 18.5312C12.026 18.5312 11.6953 18.5833 11.4297 18.6875C11.1693 18.7969 10.9219 18.9036 10.6875 19.0078C10.4531 19.112 10.1771 19.1641 9.85938 19.1641C9.375 19.1641 8.94792 18.9714 8.57812 18.5859C8.21354 18.2005 7.83854 17.7396 7.45312 17.2031C7.15625 16.776 6.88542 16.2839 6.64062 15.7266C6.39583 15.1693 6.20052 14.5781 6.05469 13.9531C5.90885 13.3281 5.83594 12.7031 5.83594 12.0781C5.83594 11.0781 6.02604 10.237 6.40625 9.55469C6.78646 8.8724 7.27344 8.35677 7.86719 8.00781C8.46094 7.65885 9.07812 7.48438 9.71875 7.48438C10.0573 7.48438 10.375 7.53906 10.6719 7.64844C10.974 7.75781 11.2552 7.86979 11.5156 7.98438C11.776 8.09375 12.013 8.14844 12.2266 8.14844C12.4297 8.14844 12.6693 8.09115 12.9453 7.97656C13.2214 7.85677 13.526 7.73698 13.8594 7.61719C14.1979 7.4974 14.5625 7.4375 14.9531 7.4375ZM14.4062 6.17188C14.1458 6.48958 13.8177 6.7526 13.4219 6.96094C13.0312 7.16927 12.6615 7.27344 12.3125 7.27344C12.2396 7.27344 12.1693 7.26562 12.1016 7.25C12.0964 7.22917 12.0885 7.19271 12.0781 7.14062C12.0729 7.08854 12.0703 7.03125 12.0703 6.96875C12.0703 6.57292 12.1562 6.1875 12.3281 5.8125C12.5 5.4375 12.6979 5.125 12.9219 4.875C13.1979 4.54688 13.5469 4.27344 13.9688 4.05469C14.3958 3.83594 14.8047 3.71875 15.1953 3.70312C15.2109 3.79167 15.2188 3.89323 15.2188 4.00781C15.2188 4.40885 15.1432 4.79948 14.9922 5.17969C14.8411 5.55469 14.6458 5.88542 14.4062 6.17188Z" fill="#A8A8A8"/>
</svg>
