<svg width="24" height="24" viewBox="0 0 24 24" fill="none" xmlns="http://www.w3.org/2000/svg">
<path fill-rule="evenodd" clip-rule="evenodd" d="M12 21C16.9706 21 21 16.9706 21 12C21 7.02944 16.9706 3 12 3C7.02944 3 3 7.02944 3 12C3 16.9706 7.02944 21 12 21ZM12.2856 9.05672C12.2492 9.04169 12.2115 9.02952 12.173 9.02035C12.0565 8.99256 11.9382 8.99388 11.827 9.02035C11.7889 9.02943 11.7516 9.04145 11.7154 9.05627C11.6228 9.09422 11.5416 9.1488 11.4741 9.21523C11.3986 9.28935 11.3377 9.38068 11.298 9.4862L11.2977 9.48686L11.2974 9.48788L9.89344 13.2317L9.73141 12.5835C9.729 12.5729 9.72638 12.5624 9.72353 12.552L8.9776 9.5683C8.87714 9.16646 8.46994 8.92213 8.06809 9.0226C7.66625 9.12306 7.42193 9.53026 7.52239 9.93211L8.03942 12.0002H6.75C6.33579 12.0002 6 12.336 6 12.7502C6 13.1644 6.33619 13.5002 6.75041 13.5002H8.41442L9.02239 15.9321C9.10202 16.2506 9.37956 16.4803 9.70734 16.499C10.0351 16.5177 10.337 16.321 10.4522 16.0135L12 11.8862L13.5478 16.0135C13.663 16.321 13.9649 16.5177 14.2927 16.499C14.6204 16.4803 14.898 16.2506 14.9776 15.9321L15.5856 13.5002H17.25C17.6642 13.5002 18 13.1644 18 12.7502C18 12.336 17.6642 12.0002 17.25 12.0002H15.9606L16.4776 9.93211C16.5781 9.53026 16.3338 9.12306 15.9319 9.0226C15.5301 8.92213 15.1229 9.16646 15.0224 9.5683L14.2765 12.5521C14.2736 12.5625 14.271 12.5729 14.2686 12.5835L14.1066 13.2317L12.7023 9.48686C12.6625 9.38092 12.6014 9.28925 12.5256 9.21493C12.4584 9.14889 12.3777 9.09458 12.2856 9.05672Z" fill="#A8A8A8"/>
</svg>
