<svg width="15" height="14" viewBox="0 0 15 14" fill="none" xmlns="http://www.w3.org/2000/svg">
<path fill-rule="evenodd" clip-rule="evenodd" d="M1.32698 1.63803C1 2.27976 1 3.11984 1 4.8V7.44C1 9.12016 1 9.96023 1.32698 10.602C1.6146 11.1665 2.07354 11.6254 2.63803 11.913C3.27976 12.24 4.11984 12.24 5.8 12.24H8.818C8.86825 12.24 8.89337 12.24 8.91212 12.2436C8.93786 12.2486 8.93656 12.2481 8.96023 12.2594C8.97747 12.2676 9.0204 12.2992 9.10626 12.3624C9.12053 12.3729 9.13557 12.3829 9.15139 12.3922L11.7472 13.9209C12.1157 14.138 12.5689 13.8221 12.4929 13.4012L12.2677 12.1535C12.2653 12.1407 12.2642 12.1343 12.2636 12.1304C12.2514 12.0431 12.2871 11.9711 12.364 11.9281C12.3674 11.9262 12.376 11.9218 12.3932 11.913V11.913C12.9577 11.6254 13.4167 11.1665 13.7043 10.602C14.0313 9.96023 14.0313 9.12015 14.0313 7.43999V4.8C14.0313 3.11984 14.0313 2.27976 13.7043 1.63803C13.4167 1.07354 12.9577 0.614601 12.3932 0.32698C11.7515 0 10.9114 0 9.23125 0H5.8C4.11984 0 3.27976 0 2.63803 0.32698C2.07354 0.614601 1.6146 1.07354 1.32698 1.63803Z" fill="#A8A8A8"/>
</svg>
