<svg width="20" height="21" viewBox="0 0 20 21" fill="none" xmlns="http://www.w3.org/2000/svg">
<g clip-path="url(#clip0_2013_10486)">
<rect x="0.25" y="4" width="3.5" height="1.5" rx="0.75" fill="#797EFB"/>
<rect x="0.25" y="8" width="3.5" height="1.5" rx="0.75" fill="#797EFB"/>
<rect x="0.25" y="12" width="3.5" height="1.5" rx="0.75" fill="#797EFB"/>
<rect x="0.25" y="16" width="3.5" height="1.5" rx="0.75" fill="#797EFB"/>
<mask id="path-5-inside-1_2013_10486" fill="white">
<path fill-rule="evenodd" clip-rule="evenodd" d="M2.07698 1.63803C1.75 2.27976 1.75 3.11984 1.75 4.8V16.2C1.75 17.8802 1.75 18.7202 2.07698 19.362C2.3646 19.9265 2.82354 20.3854 3.38803 20.673C4.02976 21 4.86984 21 6.55 21H14.95C16.6302 21 17.4702 21 18.112 20.673C18.6765 20.3854 19.1354 19.9265 19.423 19.362C19.75 18.7202 19.75 17.8802 19.75 16.2V4.8C19.75 3.11984 19.75 2.27976 19.423 1.63803C19.1354 1.07354 18.6765 0.614601 18.112 0.32698C17.4702 0 16.6302 0 14.95 0H6.55C4.86984 0 4.02976 0 3.38803 0.32698C2.82354 0.614601 2.3646 1.07354 2.07698 1.63803ZM11.0356 7.05672C10.9992 7.04169 10.9615 7.02952 10.923 7.02035C10.8065 6.99256 10.6882 6.99388 10.577 7.02035C10.5389 7.02943 10.5016 7.04145 10.4654 7.05627C10.3728 7.09422 10.2916 7.1488 10.2241 7.21523C10.1486 7.28935 10.0877 7.38068 10.048 7.4862L10.0477 7.48686L10.0474 7.48788L8.64344 11.2317L8.48141 10.5835C8.479 10.5729 8.47638 10.5624 8.47353 10.552L7.7276 7.5683C7.62714 7.16646 7.21994 6.92213 6.81809 7.0226C6.41625 7.12306 6.17193 7.53026 6.27239 7.93211L6.78942 10.0002H5.5C5.08579 10.0002 4.75 10.336 4.75 10.7502C4.75 11.1644 5.08619 11.5002 5.50041 11.5002H7.16442L7.77239 13.9321C7.85202 14.2506 8.12956 14.4803 8.45734 14.499C8.78513 14.5177 9.08696 14.321 9.20224 14.0135L10.75 9.88619L12.2978 14.0135C12.413 14.321 12.7149 14.5177 13.0427 14.499C13.3704 14.4803 13.648 14.2506 13.7276 13.9321L14.3356 11.5002H16C16.4142 11.5002 16.75 11.1644 16.75 10.7502C16.75 10.336 16.4142 10.0002 16 10.0002H14.7106L15.2276 7.93211C15.3281 7.53026 15.0838 7.12306 14.6819 7.0226C14.2801 6.92213 13.8729 7.16646 13.7724 7.5683L13.0265 10.5521C13.0236 10.5625 13.021 10.5729 13.0186 10.5835L12.8566 11.2317L11.4523 7.48686C11.4125 7.38092 11.3514 7.28925 11.2756 7.21493C11.2084 7.14889 11.1277 7.09458 11.0356 7.05672Z"/>
</mask>
<path fill-rule="evenodd" clip-rule="evenodd" d="M2.07698 1.63803C1.75 2.27976 1.75 3.11984 1.75 4.8V16.2C1.75 17.8802 1.75 18.7202 2.07698 19.362C2.3646 19.9265 2.82354 20.3854 3.38803 20.673C4.02976 21 4.86984 21 6.55 21H14.95C16.6302 21 17.4702 21 18.112 20.673C18.6765 20.3854 19.1354 19.9265 19.423 19.362C19.75 18.7202 19.75 17.8802 19.75 16.2V4.8C19.75 3.11984 19.75 2.27976 19.423 1.63803C19.1354 1.07354 18.6765 0.614601 18.112 0.32698C17.4702 0 16.6302 0 14.95 0H6.55C4.86984 0 4.02976 0 3.38803 0.32698C2.82354 0.614601 2.3646 1.07354 2.07698 1.63803ZM11.0356 7.05672C10.9992 7.04169 10.9615 7.02952 10.923 7.02035C10.8065 6.99256 10.6882 6.99388 10.577 7.02035C10.5389 7.02943 10.5016 7.04145 10.4654 7.05627C10.3728 7.09422 10.2916 7.1488 10.2241 7.21523C10.1486 7.28935 10.0877 7.38068 10.048 7.4862L10.0477 7.48686L10.0474 7.48788L8.64344 11.2317L8.48141 10.5835C8.479 10.5729 8.47638 10.5624 8.47353 10.552L7.7276 7.5683C7.62714 7.16646 7.21994 6.92213 6.81809 7.0226C6.41625 7.12306 6.17193 7.53026 6.27239 7.93211L6.78942 10.0002H5.5C5.08579 10.0002 4.75 10.336 4.75 10.7502C4.75 11.1644 5.08619 11.5002 5.50041 11.5002H7.16442L7.77239 13.9321C7.85202 14.2506 8.12956 14.4803 8.45734 14.499C8.78513 14.5177 9.08696 14.321 9.20224 14.0135L10.75 9.88619L12.2978 14.0135C12.413 14.321 12.7149 14.5177 13.0427 14.499C13.3704 14.4803 13.648 14.2506 13.7276 13.9321L14.3356 11.5002H16C16.4142 11.5002 16.75 11.1644 16.75 10.7502C16.75 10.336 16.4142 10.0002 16 10.0002H14.7106L15.2276 7.93211C15.3281 7.53026 15.0838 7.12306 14.6819 7.0226C14.2801 6.92213 13.8729 7.16646 13.7724 7.5683L13.0265 10.5521C13.0236 10.5625 13.021 10.5729 13.0186 10.5835L12.8566 11.2317L11.4523 7.48686C11.4125 7.38092 11.3514 7.28925 11.2756 7.21493C11.2084 7.14889 11.1277 7.09458 11.0356 7.05672Z" fill="#797EFB"/>
<path d="M2.07698 1.63803L2.96799 2.09202L2.96799 2.09202L2.07698 1.63803ZM2.07698 19.362L2.96799 18.908L2.96799 18.908L2.07698 19.362ZM3.38803 20.673L2.93404 21.564L2.93404 21.564L3.38803 20.673ZM18.112 20.673L17.658 19.782L17.658 19.782L18.112 20.673ZM19.423 19.362L18.532 18.908L18.532 18.908L19.423 19.362ZM19.423 1.63803L20.314 1.18404L20.314 1.18404L19.423 1.63803ZM18.112 0.32698L17.658 1.21799L17.658 1.21799L18.112 0.32698ZM3.38803 0.32698L3.84202 1.21799L3.84202 1.21799L3.38803 0.32698ZM10.923 7.02035L10.6911 7.99309L10.6915 7.99318L10.923 7.02035ZM11.0356 7.05672L10.6546 7.98128L10.6553 7.98158L11.0356 7.05672ZM10.577 7.02035L10.8085 7.99318L10.8085 7.99317L10.577 7.02035ZM10.4654 7.05627L10.8443 7.98171L10.845 7.98142L10.4654 7.05627ZM10.2241 7.21523L10.9247 7.92881L10.9255 7.92796L10.2241 7.21523ZM10.048 7.4862L9.11199 7.13421L9.11133 7.13597L10.048 7.4862ZM10.0477 7.48686L10.9839 7.83842L10.9844 7.83709L10.0477 7.48686ZM10.0474 7.48788L9.1112 7.13633L9.11103 7.13676L10.0474 7.48788ZM8.64344 11.2317L7.6733 11.4742L8.45218 14.5897L9.57977 11.5828L8.64344 11.2317ZM8.48141 10.5835L7.50621 10.8049L7.50862 10.8155L7.51127 10.8261L8.48141 10.5835ZM8.47353 10.552L7.50339 10.7946L7.50604 10.8051L7.50891 10.8157L8.47353 10.552ZM7.7276 7.5683L6.75746 7.81084L6.75746 7.81084L7.7276 7.5683ZM6.81809 7.0226L7.06063 7.99274L7.06063 7.99274L6.81809 7.0226ZM6.27239 7.93211L5.30224 8.17464L5.30224 8.17464L6.27239 7.93211ZM6.78942 10.0002V11.0002H8.07019L7.75956 9.75769L6.78942 10.0002ZM7.16442 11.5002L8.13456 11.2577L7.94519 10.5002H7.16442V11.5002ZM7.77239 13.9321L6.80224 14.1746L6.80224 14.1746L7.77239 13.9321ZM8.45734 14.499L8.40048 15.4974L8.40048 15.4974L8.45734 14.499ZM9.20224 14.0135L8.26591 13.6624L8.26591 13.6624L9.20224 14.0135ZM10.75 9.88619L11.6863 9.53507L10.75 7.03819L9.81367 9.53507L10.75 9.88619ZM12.2978 14.0135L13.2341 13.6624L13.2341 13.6624L12.2978 14.0135ZM13.7276 13.9321L12.7575 13.6896L12.7575 13.6896L13.7276 13.9321ZM14.3356 11.5002V10.5002H13.5548L13.3654 11.2577L14.3356 11.5002ZM14.7106 10.0002L13.7404 9.75769L13.4298 11.0002H14.7106V10.0002ZM15.2276 7.93211L14.2575 7.68957L14.2575 7.68957L15.2276 7.93211ZM13.7724 7.5683L12.8023 7.32577L12.8023 7.32577L13.7724 7.5683ZM13.0265 10.5521L13.9911 10.8157L13.994 10.8052L13.9966 10.7946L13.0265 10.5521ZM13.0186 10.5835L13.9887 10.826L13.9914 10.8155L13.9938 10.8049L13.0186 10.5835ZM12.8566 11.2317L11.9202 11.5828L13.0478 14.5897L13.8267 11.4742L12.8566 11.2317ZM11.4523 7.48686L12.3886 7.13574L12.3886 7.13573L11.4523 7.48686ZM11.2756 7.21493L10.5746 7.92806L10.5754 7.92892L11.2756 7.21493ZM2.75 4.8C2.75 3.94342 2.75078 3.36113 2.78755 2.91104C2.82337 2.47262 2.8883 2.24842 2.96799 2.09202L1.18597 1.18404C0.938683 1.66937 0.840119 2.18608 0.794194 2.74817C0.749222 3.2986 0.75 3.97642 0.75 4.8H2.75ZM2.75 16.2V4.8H0.75V16.2H2.75ZM2.96799 18.908C2.8883 18.7516 2.82337 18.5274 2.78755 18.089C2.75078 17.6389 2.75 17.0566 2.75 16.2H0.75C0.75 17.0236 0.749222 17.7014 0.794194 18.2518C0.840119 18.8139 0.938683 19.3306 1.18597 19.816L2.96799 18.908ZM3.84202 19.782C3.46569 19.5903 3.15973 19.2843 2.96799 18.908L1.18597 19.816C1.56947 20.5686 2.18139 21.1805 2.93404 21.564L3.84202 19.782ZM6.55 20C5.69342 20 5.11113 19.9992 4.66104 19.9624C4.22262 19.9266 3.99842 19.8617 3.84202 19.782L2.93404 21.564C3.41937 21.8113 3.93608 21.9099 4.49817 21.9558C5.0486 22.0008 5.72642 22 6.55 22V20ZM14.95 20H6.55V22H14.95V20ZM17.658 19.782C17.5016 19.8617 17.2774 19.9266 16.839 19.9624C16.3889 19.9992 15.8066 20 14.95 20V22C15.7736 22 16.4514 22.0008 17.0018 21.9558C17.5639 21.9099 18.0806 21.8113 18.566 21.564L17.658 19.782ZM18.532 18.908C18.3403 19.2843 18.0343 19.5903 17.658 19.782L18.566 21.564C19.3186 21.1805 19.9305 20.5686 20.314 19.816L18.532 18.908ZM18.75 16.2C18.75 17.0566 18.7492 17.6389 18.7124 18.089C18.6766 18.5274 18.6117 18.7516 18.532 18.908L20.314 19.816C20.5613 19.3306 20.6599 18.8139 20.7058 18.2518C20.7508 17.7014 20.75 17.0236 20.75 16.2H18.75ZM18.75 4.8V16.2H20.75V4.8H18.75ZM18.532 2.09202C18.6117 2.24842 18.6766 2.47262 18.7124 2.91104C18.7492 3.36113 18.75 3.94342 18.75 4.8H20.75C20.75 3.97642 20.7508 3.2986 20.7058 2.74817C20.6599 2.18608 20.5613 1.66937 20.314 1.18404L18.532 2.09202ZM17.658 1.21799C18.0343 1.40973 18.3403 1.71569 18.532 2.09202L20.314 1.18404C19.9305 0.43139 19.3186 -0.180533 18.566 -0.564026L17.658 1.21799ZM14.95 1C15.8066 1 16.3889 1.00078 16.839 1.03755C17.2774 1.07337 17.5016 1.1383 17.658 1.21799L18.566 -0.564026C18.0806 -0.811317 17.5639 -0.909881 17.0018 -0.955806C16.4514 -1.00078 15.7736 -1 14.95 -1V1ZM6.55 1H14.95V-1H6.55V1ZM3.84202 1.21799C3.99842 1.1383 4.22262 1.07337 4.66104 1.03755C5.11113 1.00078 5.69342 1 6.55 1V-1C5.72642 -1 5.0486 -1.00078 4.49817 -0.955806C3.93608 -0.909881 3.41937 -0.811317 2.93404 -0.564026L3.84202 1.21799ZM2.96799 2.09202C3.15973 1.71569 3.46569 1.40973 3.84202 1.21799L2.93404 -0.564026C2.18139 -0.180533 1.56947 0.43139 1.18597 1.18404L2.96799 2.09202ZM10.6915 7.99318C10.6787 7.99015 10.6664 7.98615 10.6546 7.98128L11.4167 6.13215C11.3319 6.09723 11.2443 6.06889 11.1546 6.04753L10.6915 7.99318ZM10.8085 7.99317C10.7714 8.002 10.7309 8.00257 10.6911 7.99309L11.1549 6.04762C10.882 5.98255 10.605 5.98575 10.3454 6.04753L10.8085 7.99317ZM10.845 7.98142C10.8333 7.98624 10.8211 7.99018 10.8085 7.99318L10.3454 6.04753C10.2566 6.06867 10.1698 6.09667 10.0858 6.13112L10.845 7.98142ZM10.9255 7.92796C10.9021 7.95099 10.8742 7.96947 10.8443 7.98171L10.0866 6.13083C9.87129 6.21896 9.68106 6.3466 9.52265 6.50251L10.9255 7.92796ZM10.984 7.83819C10.9714 7.87167 10.9509 7.90306 10.9247 7.92881L9.52351 6.50166C9.3463 6.67563 9.20394 6.8897 9.11199 7.13421L10.984 7.83819ZM10.9844 7.83709L10.9847 7.83643L9.11133 7.13597L9.11108 7.13663L10.9844 7.83709ZM10.9835 7.83944L10.9839 7.83842L9.11158 7.13531L9.1112 7.13633L10.9835 7.83944ZM9.57977 11.5828L10.9837 7.83901L9.11103 7.13676L7.70711 10.8805L9.57977 11.5828ZM7.51127 10.8261L7.6733 11.4742L9.61359 10.9891L9.45155 10.341L7.51127 10.8261ZM7.50891 10.8157C7.50793 10.8121 7.50703 10.8085 7.50621 10.8049L9.45661 10.3622C9.45098 10.3374 9.44483 10.3128 9.43815 10.2884L7.50891 10.8157ZM6.75746 7.81084L7.50339 10.7946L9.44367 10.3095L8.69774 7.32577L6.75746 7.81084ZM7.06063 7.99274C6.92668 8.02623 6.79094 7.94479 6.75746 7.81084L8.69774 7.32577C8.46333 6.38812 7.5132 5.81804 6.57556 6.05245L7.06063 7.99274ZM7.24253 7.68957C7.27602 7.82352 7.19458 7.95925 7.06063 7.99274L6.57556 6.05245C5.63792 6.28686 5.06783 7.237 5.30224 8.17464L7.24253 7.68957ZM7.75956 9.75769L7.24253 7.68957L5.30224 8.17464L5.81928 10.2428L7.75956 9.75769ZM5.5 11.0002H6.78942V9.00023H5.5V11.0002ZM5.75 10.7502C5.75 10.8883 5.63807 11.0002 5.5 11.0002V9.00023C4.5335 9.00023 3.75 9.78373 3.75 10.7502H5.75ZM5.50041 10.5002C5.63777 10.5002 5.75 10.6115 5.75 10.7502H3.75C3.75 11.7174 4.53461 12.5002 5.50041 12.5002V10.5002ZM7.16442 10.5002H5.50041V12.5002H7.16442V10.5002ZM8.74253 13.6896L8.13456 11.2577L6.19428 11.7428L6.80224 14.1746L8.74253 13.6896ZM8.51421 13.5006C8.62347 13.5068 8.71599 13.5834 8.74253 13.6896L6.80224 14.1746C6.98804 14.9178 7.63564 15.4538 8.40048 15.4974L8.51421 13.5006ZM8.26591 13.6624C8.30434 13.5599 8.40495 13.4944 8.51421 13.5006L8.40048 15.4974C9.16532 15.5409 9.86958 15.082 10.1386 14.3647L8.26591 13.6624ZM9.81367 9.53507L8.26591 13.6624L10.1386 14.3647L11.6863 10.2373L9.81367 9.53507ZM13.2341 13.6624L11.6863 9.53507L9.81367 10.2373L11.3614 14.3647L13.2341 13.6624ZM12.9858 13.5006C13.095 13.4944 13.1957 13.5599 13.2341 13.6624L11.3614 14.3647C11.6304 15.082 12.3347 15.5409 13.0995 15.4974L12.9858 13.5006ZM12.7575 13.6896C12.784 13.5834 12.8765 13.5068 12.9858 13.5006L13.0995 15.4974C13.8644 15.4538 14.512 14.9178 14.6978 14.1746L12.7575 13.6896ZM13.3654 11.2577L12.7575 13.6896L14.6978 14.1746L15.3057 11.7428L13.3654 11.2577ZM16 10.5002H14.3356V12.5002H16V10.5002ZM15.75 10.7502C15.75 10.6122 15.8619 10.5002 16 10.5002V12.5002C16.9665 12.5002 17.75 11.7167 17.75 10.7502H15.75ZM16 11.0002C15.8619 11.0002 15.75 10.8883 15.75 10.7502H17.75C17.75 9.78373 16.9665 9.00023 16 9.00023V11.0002ZM14.7106 11.0002H16V9.00023H14.7106V11.0002ZM14.2575 7.68957L13.7404 9.75769L15.6807 10.2428L16.1978 8.17464L14.2575 7.68957ZM14.4394 7.99274C14.3054 7.95925 14.224 7.82352 14.2575 7.68957L16.1978 8.17464C16.4322 7.237 15.8621 6.28686 14.9244 6.05245L14.4394 7.99274ZM14.7425 7.81084C14.7091 7.94479 14.5733 8.02623 14.4394 7.99274L14.9244 6.05245C13.9868 5.81804 13.0367 6.38813 12.8023 7.32577L14.7425 7.81084ZM13.9966 10.7946L14.7425 7.81084L12.8023 7.32577L12.0563 10.3095L13.9966 10.7946ZM13.9938 10.8049C13.993 10.8085 13.9921 10.8121 13.9911 10.8157L12.0618 10.2885C12.0552 10.3128 12.049 10.3373 12.0434 10.3621L13.9938 10.8049ZM13.8267 11.4742L13.9887 10.826L12.0485 10.341L11.8864 10.9891L13.8267 11.4742ZM10.5159 7.83798L11.9202 11.5828L13.7929 10.8805L12.3886 7.13574L10.5159 7.83798ZM10.5754 7.92892C10.5491 7.90309 10.5285 7.87158 10.5159 7.83799L12.3886 7.13573C12.2965 6.89025 12.1537 6.67542 11.9758 6.50095L10.5754 7.92892ZM10.6553 7.98158C10.6256 7.96935 10.5979 7.95096 10.5746 7.92806L11.9766 6.5018C11.819 6.34682 11.6298 6.21982 11.4159 6.13185L10.6553 7.98158Z" fill="#797EFB" mask="url(#path-5-inside-1_2013_10486)"/>
</g>
<defs>
<clipPath id="clip0_2013_10486">
<rect width="20" height="21" fill="white"/>
</clipPath>
</defs>
</svg>
