<svg width="20" height="21" viewBox="0 0 20 21" fill="none" xmlns="http://www.w3.org/2000/svg">
<g clip-path="url(#clip0_2013_10471)">
<rect x="2.5" y="0.75" width="16.5" height="19.5" rx="2.25" stroke="#A8A8A8" stroke-width="1.5"/>
<rect x="0.25" y="4" width="3.5" height="1.5" rx="0.75" fill="#A8A8A8"/>
<rect x="0.25" y="8" width="3.5" height="1.5" rx="0.75" fill="#A8A8A8"/>
<rect x="0.25" y="12" width="3.5" height="1.5" rx="0.75" fill="#A8A8A8"/>
<rect x="0.25" y="16" width="3.5" height="1.5" rx="0.75" fill="#A8A8A8"/>
<path fill-rule="evenodd" clip-rule="evenodd" d="M10.923 7.02035C10.9615 7.02952 10.9992 7.04169 11.0356 7.05672C11.1277 7.09458 11.2084 7.14889 11.2756 7.21493C11.3514 7.28925 11.4125 7.38092 11.4523 7.48686L12.8566 11.2317L13.0186 10.5835C13.021 10.5729 13.0236 10.5625 13.0265 10.5521L13.7724 7.5683C13.8729 7.16646 14.2801 6.92213 14.6819 7.0226C15.0838 7.12306 15.3281 7.53026 15.2276 7.9321L14.7106 10.0002H16C16.4142 10.0002 16.75 10.336 16.75 10.7502C16.75 11.1644 16.4142 11.5002 16 11.5002H14.3356L13.7276 13.9321C13.648 14.2506 13.3704 14.4803 13.0427 14.499C12.7149 14.5177 12.413 14.321 12.2978 14.0135L10.75 9.88619L9.20224 14.0135C9.08696 14.321 8.78513 14.5177 8.45734 14.499C8.12956 14.4803 7.85202 14.2506 7.77239 13.9321L7.16442 11.5002H5.50041C5.08619 11.5002 4.75 11.1644 4.75 10.7502C4.75 10.336 5.08579 10.0002 5.5 10.0002H6.78942L6.27239 7.9321C6.17193 7.53026 6.41625 7.12306 6.81809 7.0226C7.21994 6.92213 7.62714 7.16646 7.7276 7.5683L8.47353 10.552C8.47638 10.5624 8.47901 10.5729 8.48141 10.5835L8.64344 11.2317L10.0474 7.48788L10.0477 7.48686L10.048 7.4862C10.0877 7.38068 10.1486 7.28935 10.2241 7.21523C10.2916 7.1488 10.3728 7.09422 10.4654 7.05627C10.5016 7.04145 10.5389 7.02943 10.577 7.02035C10.6882 6.99388 10.8065 6.99256 10.923 7.02035Z" fill="#A8A8A8"/>
</g>
<defs>
<clipPath id="clip0_2013_10471">
<rect width="20" height="21" fill="white"/>
</clipPath>
</defs>
</svg>
