<svg width="36" height="21" viewBox="0 0 36 21" fill="none" xmlns="http://www.w3.org/2000/svg">
<g clip-path="url(#clip0_2013_10495)">
<circle cx="7.41255" cy="6.0909" r="2.48506" stroke="#A8A8A8" stroke-width="1.5"/>
<circle cx="28.5878" cy="6.0909" r="2.48506" stroke="#A8A8A8" stroke-width="1.5"/>
<mask id="path-3-inside-1_2013_10495" fill="white">
<path fill-rule="evenodd" clip-rule="evenodd" d="M27.7664 18.1439C27.1951 18.1439 26.7772 17.3237 26.6642 16.7637V16.7637C26.367 15.2908 25.7462 13.9456 24.8849 12.8165C24.5131 12.3292 24.5698 11.6079 25.1157 11.3292C26.1576 10.7974 27.3375 10.4974 28.5876 10.4974C32.1266 10.4974 35.1041 12.9017 35.9758 16.166C36.2608 17.2332 35.339 18.1439 34.2344 18.1439H28.5876H27.7664Z"/>
</mask>
<path d="M35.9758 16.166L34.5266 16.553L34.5266 16.553L35.9758 16.166ZM26.6642 16.7637L28.1345 16.467L28.1345 16.467L26.6642 16.7637ZM23.6923 13.7263C24.4162 14.6753 24.9417 15.811 25.1938 17.0604L28.1345 16.467C27.7922 14.7706 27.0762 13.2159 26.0775 11.9068L23.6923 13.7263ZM25.7977 12.6652C26.6333 12.2387 27.5801 11.9974 28.5876 11.9974V8.99744C27.095 8.99744 25.6818 9.35609 24.4337 9.99325L25.7977 12.6652ZM28.5876 11.9974C31.4303 11.9974 33.8258 13.9286 34.5266 16.553L37.425 15.7791C36.3825 11.8749 32.823 8.99744 28.5876 8.99744V11.9974ZM34.5266 16.553C34.5301 16.5663 34.5255 16.5549 34.5312 16.5341C34.5355 16.518 34.5394 16.5211 34.5234 16.5384C34.4845 16.5806 34.3827 16.6439 34.2344 16.6439V19.6439C35.1906 19.6439 36.1021 19.2519 36.729 18.5719C37.3756 17.8706 37.7127 16.8563 37.425 15.7791L34.5266 16.553ZM34.2344 16.6439H28.5876V19.6439H34.2344V16.6439ZM28.5876 16.6439H27.7664V19.6439H28.5876V16.6439ZM26.0775 11.9068C26.1238 11.9674 26.1604 12.0595 26.1436 12.1883C26.1345 12.2582 26.1075 12.3491 26.0452 12.4426C25.9802 12.5401 25.8919 12.6172 25.7977 12.6652L24.4337 9.99325C22.8034 10.8255 22.9379 12.7374 23.6923 13.7263L26.0775 11.9068ZM25.1938 17.0604C25.2857 17.5156 25.4904 18.0548 25.8092 18.5164C26.0895 18.9221 26.7286 19.6439 27.7664 19.6439V16.6439C27.9998 16.6439 28.1627 16.7312 28.2343 16.7818C28.2973 16.8263 28.3051 16.8511 28.2776 16.8113C28.2535 16.7765 28.2215 16.7192 28.191 16.6452C28.1607 16.5713 28.1425 16.5066 28.1345 16.467L25.1938 17.0604Z" fill="#A8A8A8" mask="url(#path-3-inside-1_2013_10495)"/>
<mask id="path-5-inside-2_2013_10495" fill="white">
<path fill-rule="evenodd" clip-rule="evenodd" d="M11.1162 12.8169C11.4878 12.3296 11.4312 11.6084 10.8854 11.3297C9.84334 10.7976 8.66307 10.4974 7.4127 10.4974C3.87364 10.4974 0.89614 12.9017 0.0244648 16.166C-0.260505 17.2332 0.661295 18.1439 1.76586 18.1439H7.4127H8.23493C8.80624 18.1439 9.22415 17.3237 9.33715 16.7637V16.7637C9.63432 15.2909 10.255 13.9459 11.1162 12.8169Z"/>
</mask>
<path d="M0.0244648 16.166L1.47369 16.553L1.47369 16.553L0.0244648 16.166ZM9.33715 16.7637L10.8075 17.0604L10.8075 17.0604L9.33715 16.7637ZM7.4127 11.9974C8.42046 11.9974 9.36749 12.2388 10.2032 12.6656L11.5676 9.99377C10.3192 9.35629 8.90567 8.99744 7.4127 8.99744V11.9974ZM1.47369 16.553C2.1745 13.9286 4.56999 11.9974 7.4127 11.9974V8.99744C3.17729 8.99744 -0.38222 11.8749 -1.42476 15.779L1.47369 16.553ZM1.76586 16.6439C1.61752 16.6439 1.5158 16.5806 1.47691 16.5384C1.46089 16.5211 1.46473 16.518 1.4691 16.5341C1.47472 16.5549 1.47013 16.5663 1.47369 16.553L-1.42476 15.779C-1.71242 16.8563 -1.37531 17.8706 -0.728736 18.5719C-0.101822 19.2519 0.809639 19.6439 1.76586 19.6439V16.6439ZM7.4127 16.6439H1.76586V19.6439H7.4127V16.6439ZM8.23493 16.6439H7.4127V19.6439H8.23493V16.6439ZM10.8075 17.0604C11.0596 15.8111 11.585 14.6755 12.3088 13.7266L9.92352 11.9072C8.92499 13.2162 8.20905 14.7707 7.86679 16.467L10.8075 17.0604ZM8.23493 19.6439C9.27269 19.6439 9.91178 18.9221 10.1921 18.5164C10.5109 18.0548 10.7157 17.5156 10.8075 17.0604L7.86679 16.467C7.8588 16.5066 7.84065 16.5713 7.81028 16.6452C7.77984 16.7192 7.74779 16.7765 7.72375 16.8113C7.69623 16.8511 7.70397 16.8263 7.76701 16.7818C7.83862 16.7312 8.00151 16.6439 8.23493 16.6439V19.6439ZM10.2032 12.6656C10.1091 12.6175 10.0208 12.5405 9.95579 12.443C9.89346 12.3494 9.86649 12.2586 9.85739 12.1886C9.84063 12.0599 9.87726 11.9678 9.92352 11.9072L12.3088 13.7266C13.0631 12.7377 13.1976 10.8261 11.5676 9.99377L10.2032 12.6656Z" fill="#A8A8A8" mask="url(#path-5-inside-2_2013_10495)"/>
<path d="M24.6486 17.394H24.6409H24.6331H24.6254H24.6176H24.6097H24.6019H24.594H24.5861H24.5781H24.5702H24.5622H24.5542H24.5461H24.5381H24.53H24.5219H24.5137H24.5055H24.4973H24.4891H24.4809H24.4726H24.4643H24.456H24.4476H24.4392H24.4308H24.4224H24.4139H24.4054H24.3969H24.3884H24.3798H24.3712H24.3626H24.354H24.3453H24.3366H24.3279H24.3192H24.3104H24.3016H24.2928H24.284H24.2751H24.2662H24.2573H24.2484H24.2394H24.2304H24.2214H24.2124H24.2033H24.1942H24.1851H24.176H24.1668H24.1576H24.1484H24.1392H24.1299H24.1206H24.1113H24.102H24.0926H24.0832H24.0738H24.0644H24.0549H24.0454H24.0359H24.0264H24.0168H24.0073H23.9977H23.988H23.9784H23.9687H23.959H23.9493H23.9395H23.9298H23.92H23.9102H23.9003H23.8905H23.8806H23.8707H23.8607H23.8508H23.8408H23.8308H23.8207H23.8107H23.8006H23.7905H23.7804H23.7702H23.7601H23.7499H23.7397H23.7294H23.7192H23.7089H23.6986H23.6882H23.6779H23.6675H23.6571H23.6467H23.6362H23.6258H23.6153H23.6048H23.5942H23.5837H23.5731H23.5625H23.5518H23.5412H23.5305H23.5198H23.5091H23.4984H23.4876H23.4768H23.466H23.4552H23.4443H23.4335H23.4226H23.4117H23.4007H23.3898H23.3788H23.3678H23.3568H23.3457H23.3346H23.3235H23.3124H23.3013H23.2901H23.279H23.2678H23.2565H23.2453H23.234H23.2228H23.2114H23.2001H23.1888H23.1774H23.166H23.1546H23.1432H23.1317H23.1202H23.1087H23.0972H23.0857H23.0741H23.0625H23.0509H23.0393H23.0277H23.016H23.0043H22.9926H22.9809H22.9691H22.9574H22.9456H22.9338H22.9219H22.9101H22.8982H22.8863H22.8744H22.8625H22.8505H22.8386H22.8266H22.8146H22.8025H22.7905H22.7784H22.7663H22.7542H22.7421H22.7299H22.7177H22.7055H22.6933H22.6811H22.6689H22.6566H22.6443H22.632H22.6196H22.6073H22.5949H22.5825H22.5701H22.5577H22.5453H22.5328H22.5203H22.5078H22.4953H22.4827H22.4702H22.4576H22.445H22.4324H22.4197H22.4071H22.3944H22.3817H22.369H22.3563H22.3435H22.3307H22.318H22.3051H22.2923H22.2795H22.2666H22.2537H22.2408H22.2279H22.215H22.202H22.189H22.176H22.163H22.15H22.137H22.1239H22.1108H22.0977H22.0846H22.0714H22.0583H22.0451H22.0319H22.0187H22.0055H21.9922H21.979H21.9657H21.9524H21.9391H21.9257H21.9124H21.899H21.8856H21.8722H21.8588H21.8454H21.8319H21.8184H21.805H21.7914H21.7779H21.7644H21.7508H21.7372H21.7236H21.71H21.6964H21.6828H21.6691H21.6554H21.6417H21.628H21.6143H21.6005H21.5868H21.573H21.5592H21.5454H21.5315H21.5177H21.5038H21.49H21.4761H21.4621H21.4482H21.4343H21.4203H21.4063H21.3923H21.3783H21.3643H21.3503H21.3362H21.3221H21.308H21.2939H21.2798H21.2657H21.2515H21.2373H21.2232H21.209H21.1947H21.1805H21.1663H21.152H21.1377H21.1234H21.1091H21.0948H21.0804H21.0661H21.0517H21.0373H21.0229H21.0085H20.9941H20.9796H20.9651H20.9507H20.9362H20.9217H20.9071H20.8926H20.878H20.8635H20.8489H20.8343H20.8197H20.805H20.7904H20.7757H20.7611H20.7464H20.7317H20.717H20.7022H20.6875H20.6727H20.658H20.6432H20.6284H20.6135H20.5987H20.5839H20.569H20.5541H20.5392H20.5243H20.5094H20.4945H20.4795H20.4646H20.4496H20.4346H20.4196H20.4046H20.3896H20.3745H20.3595H20.3444H20.3293H20.3142H20.2991H20.284H20.2689H20.2537H20.2386H20.2234H20.2082H20.193H20.1778H20.1625H20.1473H20.132H20.1168H20.1015H20.0862H20.0709H20.0556H20.0402H20.0249H20.0095H19.9942H19.9788H19.9634H19.948H19.9325H19.9171H19.9017H19.8862H19.8707H19.8552H19.8397H19.8242H19.8087H19.7932H19.7776H19.762H19.7465H19.7309H19.7153H19.6997H19.6841H19.6684H19.6528H19.6371H19.6215H19.6058H19.5901H19.5744H19.5587H19.5429H19.5272H19.5114H19.4957H19.4799H19.4641H19.4483H19.4325H19.4167H19.4008H19.385H19.3691H19.3533H19.3374H19.3215H19.3056H19.2897H19.2738H19.2578H19.2419H19.2259H19.21H19.194H19.178H19.162H19.146H19.13H19.1139H19.0979H19.0818H19.0658H19.0497H19.0336H19.0175H19.0014H18.9853H18.9691H18.953H18.9369H18.9207H18.9045H18.8883H18.8722H18.856H18.8397H18.8235H18.8073H18.791H18.7748H18.7585H18.7423H18.726H18.7097H18.6934H18.6771H18.6607H18.6444H18.6281H18.6117H18.5954H18.579H18.5626H18.5462H18.5298H18.5134H18.497H18.4806H18.4641H18.4477H18.4312H18.4148H18.3983H18.3818H18.3653H18.3488H18.3323H18.3158H18.2993H18.2827H18.2662H18.2496H18.2331H18.2165H18.1999H18.1833H18.1667H18.1501H18.1335H18.1169H18.1003H18.0836H18.067H18.0503H18.0336H18.017H18.0003H17.9836H17.9669H17.9502H17.9336H17.9169H17.9003H17.8837H17.867H17.8504H17.8338H17.8172H17.8006H17.784H17.7675H17.7509H17.7344H17.7178H17.7013H17.6847H17.6682H17.6517H17.6352H17.6187H17.6022H17.5858H17.5693H17.5529H17.5364H17.52H17.5035H17.4871H17.4707H17.4543H17.4379H17.4215H17.4052H17.3888H17.3725H17.3561H17.3398H17.3235H17.3072H17.2909H17.2746H17.2583H17.242H17.2258H17.2095H17.1933H17.177H17.1608H17.1446H17.1284H17.1122H17.096H17.0799H17.0637H17.0475H17.0314H17.0153H16.9992H16.983H16.9669H16.9509H16.9348H16.9187H16.9027H16.8866H16.8706H16.8546H16.8386H16.8226H16.8066H16.7906H16.7746H16.7587H16.7427H16.7268H16.7109H16.6949H16.679H16.6632H16.6473H16.6314H16.6155H16.5997H16.5839H16.568H16.5522H16.5364H16.5207H16.5049H16.4891H16.4734H16.4576H16.4419H16.4262H16.4105H16.3948H16.3791H16.3634H16.3478H16.3321H16.3165H16.3009H16.2853H16.2697H16.2541H16.2385H16.2229H16.2074H16.1919H16.1763H16.1608H16.1453H16.1298H16.1144H16.0989H16.0834H16.068H16.0526H16.0372H16.0218H16.0064H15.991H15.9757H15.9603H15.945H15.9297H15.9143H15.8991H15.8838H15.8685H15.8532H15.838H15.8228H15.8076H15.7924H15.7772H15.762H15.7468H15.7317H15.7165H15.7014H15.6863H15.6712H15.6561H15.6411H15.626H15.611H15.5959H15.5809H15.5659H15.5509H15.536H15.521H15.5061H15.4911H15.4762H15.4613H15.4464H15.4315H15.4167H15.4018H15.387H15.3722H15.3574H15.3426H15.3278H15.3131H15.2983H15.2836H15.2689H15.2542H15.2395H15.2248H15.2101H15.1955H15.1809H15.1663H15.1517H15.1371H15.1225H15.108H15.0934H15.0789H15.0644H15.0499H15.0354H15.0209H15.0065H14.9921H14.9776H14.9632H14.9488H14.9345H14.9201H14.9058H14.8914H14.8771H14.8628H14.8486H14.8343H14.82H14.8058H14.7916H14.7774H14.7632H14.749H14.7349H14.7207H14.7066H14.6925H14.6784H14.6643H14.6503H14.6362H14.6222H14.6082H14.5942H14.5802H14.5663H14.5523H14.5384H14.5245H14.5106H14.4967H14.4828H14.469H14.4552H14.4414H14.4276H14.4138H14.4H14.3863H14.3725H14.3588H14.3451H14.3315H14.3178H14.3041H14.2905H14.2769H14.2633H14.2497H14.2362H14.2226H14.2091H14.1956H14.1821H14.1686H14.1552H14.1417H14.1283H14.1149H14.1015H14.0882H14.0748H14.0615H14.0481H14.0348H14.0216H14.0083H13.9951H13.9818H13.9686H13.9554H13.9423H13.9291H13.916H13.9028H13.8897H13.8767H13.8636H13.8505H13.8375H13.8245H13.8115H13.7985H13.7856H13.7726H13.7597H13.7468H13.7339H13.7211H13.7082H13.6954H13.6826H13.6698H13.657H13.6443H13.6316H13.6188H13.6061H13.5935H13.5808H13.5682H13.5556H13.543H13.5304H13.5178H13.5053H13.4927H13.4802H13.4678H13.4553H13.4428H13.4304H13.418H13.4056H13.3932H13.3809H13.3686H13.3563H13.344H13.3317H13.3194H13.3072H13.295H13.2828H13.2706H13.2585H13.2464H13.2342H13.2221H13.2101H13.198H13.186H13.174H13.162H13.15H13.1381H13.1261H13.1142H13.1023H13.0905H13.0786H13.0668H13.055H13.0432H13.0314H13.0197H13.0079H12.9962H12.9845H12.9729H12.9612H12.9496H12.938H12.9264H12.9149H12.9033H12.8918H12.8803H12.8688H12.8574H12.846H12.8345H12.8231H12.8118H12.8004H12.7891H12.7778H12.7665H12.7552H12.744H12.7328H12.7216H12.7104H12.6992H12.6881H12.677H12.6659H12.6548H12.6438H12.6328H12.6218H12.6108H12.5998H12.5889H12.578H12.5671H12.5562H12.5454H12.5345H12.5237H12.5129H12.5022H12.4914H12.4807H12.47H12.4594H12.4487H12.4381H12.4275H12.4169H12.4063H12.3958H12.3853H12.3748H12.3643H12.3539H12.3435H12.3331H12.3227H12.3123H12.302H12.2917H12.2814H12.2711H12.2609H12.2507H12.2405H12.2303H12.2202H12.21H12.1999H12.1899H12.1798H12.1698H12.1598H12.1498H12.1398H12.1299H12.12H12.1101H12.1002H12.0904H12.0806H12.0708H12.061H12.0513H12.0415H12.0318H12.0222H12.0125H12.0029H11.9933H11.9837H11.9741H11.9646H11.9551H11.9456H11.9362H11.9267H11.9173H11.9079H11.8986H11.8892H11.8799H11.8706H11.8614H11.8521H11.8429H11.8337H11.8246H11.8154H11.8063H11.7972H11.7882H11.7791H11.7701H11.7611H11.7522H11.7432H11.7343H11.7254H11.7166H11.7077H11.6989H11.6901H11.6813H11.6726H11.6639H11.6552H11.6465H11.6379H11.6293H11.6207H11.6122H11.6036H11.5951H11.5866H11.5782H11.5697H11.5613H11.5529H11.5446H11.5363H11.528H11.5197H11.5114H11.5032H11.495H11.4868H11.4787H11.4706H11.4625H11.4544H11.4464H11.4384H11.4304H11.4224H11.4145H11.4066H11.3987H11.3908H11.383H11.3752H11.3674H11.3597H11.3519C11.2799 17.394 11.2245 17.3647 11.1929 17.3318C11.1654 17.3031 11.1577 17.2761 11.162 17.2432C11.6028 13.8603 14.497 11.2475 18.0003 11.2475C21.5035 11.2475 24.3977 13.8603 24.8386 17.2432C24.8429 17.2761 24.8351 17.3031 24.8076 17.3318C24.7761 17.3647 24.7206 17.394 24.6486 17.394Z" stroke="#A8A8A8" stroke-width="1.5"/>
<circle cx="18.0002" cy="6.0909" r="2.48506" stroke="#A8A8A8" stroke-width="1.5"/>
</g>
<defs>
<clipPath id="clip0_2013_10495">
<rect width="36" height="21" fill="white"/>
</clipPath>
</defs>
</svg>
