<svg width="24" height="24" viewBox="0 0 24 24" fill="none" xmlns="http://www.w3.org/2000/svg">
<g clip-path="url(#clip0_921_10011)">
<path fill-rule="evenodd" clip-rule="evenodd" d="M12.6389 21.8296C12.8991 22.7602 14.1968 22.8172 14.5377 21.9131L20.9638 4.86869C21.2683 4.06093 20.4751 3.27276 19.6693 3.58249L2.66646 10.1182C1.76455 10.4649 1.82996 11.7622 2.76216 12.0164L9.08975 13.7419C9.43706 13.8366 9.80848 13.7373 10.0622 13.4819L13.6626 9.85828C13.9545 9.56445 14.4294 9.56292 14.7232 9.85487C15.0171 10.1468 15.0186 10.6217 14.7267 10.9155L11.1264 14.5391C10.8726 14.7945 10.7758 15.1665 10.8727 15.5132L12.6389 21.8296Z" fill="#A8A8A8"/>
</g>
<defs>
<clipPath id="clip0_921_10011">
<rect width="24" height="24" fill="white"/>
</clipPath>
</defs>
</svg>
