<svg width="24" height="24" viewBox="0 0 24 24" fill="none" xmlns="http://www.w3.org/2000/svg">
<path d="M4.26538 19.7065L5.36968 16.5821L7.36968 18.5821L4.26538 19.7065Z" fill="#A8A8A8"/>
<mask id="path-2-outside-1_858_7544" maskUnits="userSpaceOnUse" x="2.76196" y="2.7619" width="18" height="18" fill="black">
<rect fill="white" x="2.76196" y="2.7619" width="18" height="18"/>
<path fill-rule="evenodd" clip-rule="evenodd" d="M5.72107 14.8443C5.74304 14.7564 5.7885 14.6761 5.85258 14.612L13.1597 7.30486L16.6952 10.8404L9.38812 18.1475C9.32404 18.2116 9.24375 18.2571 9.15583 18.279L5.3846 19.2218C5.01841 19.3134 4.68671 18.9817 4.77826 18.6155L5.72107 14.8443ZM17.506 10.0296L19.0918 8.44388C19.287 8.24862 19.287 7.93204 19.0918 7.73678L16.2633 4.90835C16.0681 4.71309 15.7515 4.71309 15.5562 4.90835L13.9705 6.49406L17.506 10.0296ZM5.14548 13.9049C4.95324 14.0971 4.81686 14.338 4.75092 14.6017L3.80811 18.373C3.53347 19.4715 4.52856 20.4666 5.62713 20.192L9.39837 19.2492C9.66212 19.1832 9.90299 19.0469 10.0952 18.8546L19.7989 9.15099C20.3846 8.5652 20.3846 7.61545 19.7989 7.02967L16.9704 4.20124C16.3846 3.61546 15.4349 3.61546 14.8491 4.20124L5.14548 13.9049Z"/>
</mask>
<path fill-rule="evenodd" clip-rule="evenodd" d="M5.72107 14.8443C5.74304 14.7564 5.7885 14.6761 5.85258 14.612L13.1597 7.30486L16.6952 10.8404L9.38812 18.1475C9.32404 18.2116 9.24375 18.2571 9.15583 18.279L5.3846 19.2218C5.01841 19.3134 4.68671 18.9817 4.77826 18.6155L5.72107 14.8443ZM17.506 10.0296L19.0918 8.44388C19.287 8.24862 19.287 7.93204 19.0918 7.73678L16.2633 4.90835C16.0681 4.71309 15.7515 4.71309 15.5562 4.90835L13.9705 6.49406L17.506 10.0296ZM5.14548 13.9049C4.95324 14.0971 4.81686 14.338 4.75092 14.6017L3.80811 18.373C3.53347 19.4715 4.52856 20.4666 5.62713 20.192L9.39837 19.2492C9.66212 19.1832 9.90299 19.0469 10.0952 18.8546L19.7989 9.15099C20.3846 8.5652 20.3846 7.61545 19.7989 7.02967L16.9704 4.20124C16.3846 3.61546 15.4349 3.61546 14.8491 4.20124L5.14548 13.9049Z" fill="#A8A8A8"/>
<path d="M5.85258 14.612L6.20614 14.9655L5.85258 14.612ZM5.72107 14.8443L5.23599 14.723L5.72107 14.8443ZM13.1597 7.30486L13.5133 6.9513L13.1597 6.59775L12.8062 6.9513L13.1597 7.30486ZM16.6952 10.8404L17.0488 11.1939L17.4024 10.8404L17.0488 10.4868L16.6952 10.8404ZM9.38812 18.1475L9.74167 18.5011L9.74167 18.5011L9.38812 18.1475ZM9.15583 18.279L9.03457 17.794L9.03456 17.794L9.15583 18.279ZM5.3846 19.2218L5.26333 18.7368H5.26333L5.3846 19.2218ZM4.77826 18.6155L5.26333 18.7368L4.77826 18.6155ZM17.506 10.0296L17.1525 10.3832L17.506 10.7367L17.8596 10.3832L17.506 10.0296ZM19.0918 8.44388L18.7382 8.09033L19.0918 8.44388ZM19.0918 7.73678L18.7382 8.09033L18.7382 8.09033L19.0918 7.73678ZM16.2633 4.90835L15.9098 5.2619V5.2619L16.2633 4.90835ZM15.5562 4.90835L15.9098 5.2619L15.5562 4.90835ZM13.9705 6.49406L13.617 6.14051L13.2634 6.49406L13.617 6.84762L13.9705 6.49406ZM4.75092 14.6017L5.23599 14.723L4.75092 14.6017ZM5.14548 13.9049L4.79192 13.5513H4.79192L5.14548 13.9049ZM3.80811 18.373L3.32304 18.2517L3.80811 18.373ZM5.62713 20.192L5.50586 19.7069H5.50586L5.62713 20.192ZM9.39837 19.2492L9.2771 18.7641H9.2771L9.39837 19.2492ZM10.0952 18.8546L10.4488 19.2082L10.0952 18.8546ZM19.7989 9.15099L20.1524 9.50454V9.50454L19.7989 9.15099ZM19.7989 7.02967L20.1524 6.67612V6.67612L19.7989 7.02967ZM16.9704 4.20124L17.324 3.84769L17.324 3.84769L16.9704 4.20124ZM14.8491 4.20124L15.2027 4.55479L14.8491 4.20124ZM5.49903 14.2584C5.37087 14.3866 5.27995 14.5472 5.23599 14.723L6.20614 14.9655L6.20614 14.9655L5.49903 14.2584ZM12.8062 6.9513L5.49903 14.2584L6.20614 14.9655L13.5133 7.65841L12.8062 6.9513ZM17.0488 10.4868L13.5133 6.9513L12.8062 7.65841L16.3417 11.1939L17.0488 10.4868ZM9.74167 18.5011L17.0488 11.1939L16.3417 10.4868L9.03456 17.794L9.74167 18.5011ZM9.2771 18.7641C9.45293 18.7202 9.61351 18.6292 9.74167 18.5011L9.03457 17.794H9.03457L9.2771 18.7641ZM5.50586 19.7069L9.2771 18.7641L9.03456 17.794L5.26333 18.7368L5.50586 19.7069ZM4.29319 18.4942C4.11009 19.2266 4.77348 19.89 5.50586 19.7069L5.26333 18.7368L5.26333 18.7368L4.29319 18.4942ZM5.23599 14.723L4.29319 18.4942L5.26333 18.7368L6.20614 14.9655L5.23599 14.723ZM17.8596 10.3832L19.4453 8.79744L18.7382 8.09033L17.1525 9.67605L17.8596 10.3832ZM19.4453 8.79744C19.8358 8.40691 19.8358 7.77375 19.4453 7.38322L18.7382 8.09033L18.7382 8.09033L19.4453 8.79744ZM19.4453 7.38322L16.6169 4.55479L15.9098 5.2619L18.7382 8.09033L19.4453 7.38322ZM16.6169 4.55479C16.2264 4.16427 15.5932 4.16427 15.2027 4.5548L15.9098 5.2619L15.9098 5.2619L16.6169 4.55479ZM15.2027 4.55479L13.617 6.14051L14.3241 6.84762L15.9098 5.2619L15.2027 4.55479ZM13.617 6.84762L17.1525 10.3832L17.8596 9.67605L14.3241 6.14051L13.617 6.84762ZM5.23599 14.723C5.27995 14.5472 5.37087 14.3866 5.49903 14.2584L4.79192 13.5513C4.53561 13.8076 4.35377 14.1288 4.26585 14.4805L5.23599 14.723ZM4.29319 18.4942L5.23599 14.723L4.26585 14.4805L3.32304 18.2517L4.29319 18.4942ZM5.50586 19.7069C4.77348 19.89 4.11009 19.2266 4.29319 18.4942L3.32304 18.2517C2.95685 19.7165 4.28364 21.0433 5.7484 20.6771L5.50586 19.7069ZM9.2771 18.7641L5.50586 19.7069L5.7484 20.6771L9.51964 19.7343L9.2771 18.7641ZM9.74167 18.5011C9.61351 18.6292 9.45293 18.7202 9.2771 18.7641L9.51964 19.7343C9.8713 19.6463 10.1925 19.4645 10.4488 19.2082L9.74167 18.5011ZM19.4453 8.79744L9.74167 18.5011L10.4488 19.2082L20.1524 9.50454L19.4453 8.79744ZM19.4453 7.38322C19.8358 7.77375 19.8358 8.40691 19.4453 8.79744L20.1524 9.50454C20.9335 8.72349 20.9335 7.45716 20.1524 6.67612L19.4453 7.38322ZM16.6169 4.55479L19.4453 7.38322L20.1524 6.67612L17.324 3.84769L16.6169 4.55479ZM15.2027 4.55479C15.5932 4.16427 16.2264 4.16427 16.6169 4.55479L17.324 3.84769C16.5429 3.06664 15.2766 3.06664 14.4956 3.84769L15.2027 4.55479ZM5.49903 14.2584L15.2027 4.55479L14.4956 3.84769L4.79192 13.5513L5.49903 14.2584Z" fill="#A8A8A8" mask="url(#path-2-outside-1_858_7544)"/>
</svg>
