<svg width="36" height="21" viewBox="0 0 36 21" fill="none" xmlns="http://www.w3.org/2000/svg">
<g clip-path="url(#clip0_2013_10509)">
<circle cx="7.41255" cy="6.0909" r="3.23506" fill="#797EFB"/>
<circle cx="28.5878" cy="6.0909" r="3.23506" fill="#797EFB"/>
<path fill-rule="evenodd" clip-rule="evenodd" d="M27.7654 18.144C27.1941 18.144 26.7762 17.3237 26.6632 16.7637V16.7637C26.366 15.2908 25.7452 13.9456 24.8839 12.8165C24.5122 12.3292 24.5688 11.6079 25.1147 11.3292C26.1566 10.7974 27.3366 10.4974 28.5866 10.4974C32.1256 10.4974 35.1031 12.9017 35.9748 16.166C36.2598 17.2332 35.338 18.144 34.2334 18.144H28.5866H27.7654Z" fill="#797EFB"/>
<path fill-rule="evenodd" clip-rule="evenodd" d="M11.1162 12.8169C11.4879 12.3296 11.4312 11.6084 10.8854 11.3297C9.84334 10.7976 8.66307 10.4974 7.4127 10.4974C3.87364 10.4974 0.89614 12.9017 0.0244648 16.166C-0.260505 17.2332 0.661295 18.144 1.76586 18.144H7.4127H8.23493C8.80624 18.144 9.22415 17.3237 9.33715 16.7637V16.7637C9.63433 15.2909 10.255 13.9459 11.1162 12.8169Z" fill="#797EFB"/>
<path d="M25.5823 17.1463C25.6536 17.6939 25.2009 18.144 24.6486 18.144C23.3328 18.144 20.8484 18.144 18.0003 18.144C15.1522 18.144 12.6678 18.144 11.3519 18.144C10.7996 18.144 10.3469 17.6939 10.4183 17.1463C10.9072 13.3946 14.1154 10.4975 18.0003 10.4975C21.8852 10.4975 25.0934 13.3946 25.5823 17.1463Z" fill="#797EFB"/>
<circle cx="18.0002" cy="6.0909" r="3.23506" fill="#797EFB"/>
</g>
<defs>
<clipPath id="clip0_2013_10509">
<rect width="36" height="21" fill="white"/>
</clipPath>
</defs>
</svg>
