<svg width="19" height="21" viewBox="0 0 19 21" fill="none" xmlns="http://www.w3.org/2000/svg">
<g clip-path="url(#clip0_2013_10510)">
<path d="M17.0022 19.2468H16.992H16.9818H16.9715H16.9613H16.951H16.9407H16.9303H16.92H16.9096H16.8992H16.8888H16.8784H16.8679H16.8574H16.8469H16.8364H16.8258H16.8153H16.8047H16.7941H16.7834H16.7728H16.7621H16.7514H16.7407H16.7299H16.7191H16.7084H16.6975H16.6867H16.6759H16.665H16.6541H16.6432H16.6322H16.6213H16.6103H16.5993H16.5883H16.5772H16.5662H16.5551H16.544H16.5328H16.5217H16.5105H16.4993H16.4881H16.4769H16.4656H16.4543H16.443H16.4317H16.4204H16.409H16.3976H16.3862H16.3748H16.3634H16.3519H16.3404H16.3289H16.3174H16.3059H16.2943H16.2827H16.2711H16.2595H16.2478H16.2362H16.2245H16.2128H16.201H16.1893H16.1775H16.1657H16.1539H16.1421H16.1302H16.1184H16.1065H16.0946H16.0826H16.0707H16.0587H16.0467H16.0347H16.0227H16.0106H15.9986H15.9865H15.9744H15.9622H15.9501H15.9379H15.9257H15.9135H15.9013H15.8891H15.8768H15.8645H15.8522H15.8399H15.8275H15.8152H15.8028H15.7904H15.778H15.7655H15.7531H15.7406H15.7281H15.7156H15.7031H15.6905H15.6779H15.6653H15.6527H15.6401H15.6274H15.6148H15.6021H15.5894H15.5767H15.5639H15.5511H15.5384H15.5256H15.5127H15.4999H15.4871H15.4742H15.4613H15.4484H15.4354H15.4225H15.4095H15.3965H15.3835H15.3705H15.3575H15.3444H15.3313H15.3183H15.3051H15.292H15.2789H15.2657H15.2525H15.2393H15.2261H15.2128H15.1996H15.1863H15.173H15.1597H15.1464H15.133H15.1197H15.1063H15.0929H15.0795H15.066H15.0526H15.0391H15.0256H15.0121H14.9986H14.985H14.9715H14.9579H14.9443H14.9307H14.9171H14.9034H14.8897H14.8761H14.8624H14.8487H14.8349H14.8212H14.8074H14.7936H14.7798H14.766H14.7522H14.7383H14.7244H14.7106H14.6967H14.6827H14.6688H14.6548H14.6409H14.6269H14.6129H14.5989H14.5848H14.5708H14.5567H14.5426H14.5285H14.5144H14.5002H14.4861H14.4719H14.4577H14.4435H14.4293H14.4151H14.4008H14.3866H14.3723H14.358H14.3437H14.3293H14.315H14.3006H14.2862H14.2718H14.2574H14.243H14.2285H14.2141H14.1996H14.1851H14.1706H14.1561H14.1415H14.127H14.1124H14.0978H14.0832H14.0686H14.0539H14.0393H14.0246H14.0099H13.9953H13.9805H13.9658H13.9511H13.9363H13.9215H13.9067H13.8919H13.8771H13.8623H13.8474H13.8326H13.8177H13.8028H13.7879H13.7729H13.758H13.743H13.7281H13.7131H13.6981H13.6831H13.668H13.653H13.6379H13.6228H13.6078H13.5927H13.5775H13.5624H13.5472H13.5321H13.5169H13.5017H13.4865H13.4713H13.456H13.4408H13.4255H13.4102H13.3949H13.3796H13.3643H13.349H13.3336H13.3183H13.3029H13.2875H13.2721H13.2566H13.2412H13.2258H13.2103H13.1948H13.1793H13.1638H13.1483H13.1328H13.1172H13.1016H13.0861H13.0705H13.0549H13.0393H13.0236H13.008H12.9923H12.9766H12.961H12.9453H12.9295H12.9138H12.8981H12.8823H12.8666H12.8508H12.835H12.8192H12.8034H12.7875H12.7717H12.7558H12.7399H12.7241H12.7082H12.6922H12.6763H12.6604H12.6444H12.6285H12.6125H12.5965H12.5805H12.5645H12.5484H12.5324H12.5164H12.5003H12.4842H12.4681H12.452H12.4359H12.4198H12.4036H12.3875H12.3713H12.3551H12.3389H12.3227H12.3065H12.2903H12.274H12.2578H12.2415H12.2252H12.2089H12.1926H12.1763H12.16H12.1436H12.1273H12.1109H12.0945H12.0782H12.0618H12.0453H12.0289H12.0125H11.996H11.9796H11.9631H11.9466H11.9301H11.9136H11.8971H11.8806H11.864H11.8475H11.8309H11.8143H11.7977H11.7811H11.7645H11.7479H11.7313H11.7146H11.698H11.6813H11.6646H11.6479H11.6312H11.6145H11.5978H11.5811H11.5643H11.5475H11.5308H11.514H11.4972H11.4804H11.4636H11.4468H11.4299H11.4131H11.3962H11.3794H11.3625H11.3456H11.3287H11.3118H11.2949H11.2779H11.261H11.244H11.2271H11.2101H11.1931H11.1761H11.1591H11.1421H11.1251H11.108H11.091H11.0739H11.0569H11.0398H11.0227H11.0056H10.9885H10.9714H10.9543H10.9371H10.92H10.9028H10.8857H10.8685H10.8513H10.8341H10.8169H10.7997H10.7824H10.7652H10.748H10.7307H10.7134H10.6962H10.6789H10.6616H10.6443H10.627H10.6096H10.5923H10.575H10.5576H10.5402H10.5229H10.5055H10.4881H10.4707H10.4533H10.4359H10.4185H10.401H10.3836H10.3661H10.3487H10.3312H10.3137H10.2962H10.2787H10.2612H10.2437H10.2262H10.2086H10.1911H10.1735H10.156H10.1384H10.1208H10.1032H10.0856H10.068H10.0504H10.0328H10.0152H9.99754H9.97989H9.96224H9.94457H9.9269H9.90922H9.89153H9.87383H9.85613H9.83841H9.82069H9.80296H9.78522H9.76748H9.74972H9.73196H9.71419H9.69641H9.67862H9.66083H9.64303H9.62521H9.6074H9.58957H9.57174H9.55389H9.53604H9.51819H9.50032H9.48246H9.4646H9.44675H9.42891H9.41107H9.39325H9.37543H9.35762H9.33982H9.32202H9.30423H9.28645H9.26868H9.25092H9.23317H9.21542H9.19768H9.17995H9.16223H9.14452H9.12681H9.10911H9.09142H9.07374H9.05607H9.03841H9.02075H9.00311H8.98547H8.96784H8.95022H8.9326H8.915H8.8974H8.87982H8.86224H8.84467H8.82711H8.80956H8.79201H8.77448H8.75695H8.73944H8.72193H8.70443H8.68694H8.66946H8.65199H8.63452H8.61707H8.59962H8.58219H8.56476H8.54735H8.52994H8.51254H8.49515H8.47777H8.4604H8.44304H8.42569H8.40834H8.39101H8.37369H8.35637H8.33907H8.32177H8.30449H8.28721H8.26995H8.25269H8.23544H8.21821H8.20098H8.18376H8.16656H8.14936H8.13217H8.11499H8.09783H8.08067H8.06352H8.04638H8.02925H8.01214H7.99503H7.97793H7.96084H7.94377H7.9267H7.90964H7.8926H7.87556H7.85853H7.84152H7.82451H7.80752H7.79054H7.77356H7.7566H7.73965H7.72271H7.70577H7.68885H7.67194H7.65504H7.63816H7.62128H7.60441H7.58755H7.57071H7.55387H7.53705H7.52024H7.50344H7.48665H7.46987H7.4531H7.43634H7.41959H7.40286H7.38613H7.36942H7.35272H7.33603H7.31935H7.30268H7.28602H7.26938H7.25274H7.23612H7.21951H7.20291H7.18632H7.16974H7.15318H7.13662H7.12008H7.10355H7.08703H7.07052H7.05403H7.03754H7.02107H7.00461H6.98816H6.97173H6.9553H6.93889H6.92249H6.9061H6.88972H6.87336H6.85701H6.84067H6.82434H6.80802H6.79172H6.77542H6.75915H6.74288H6.72662H6.71038H6.69415H6.67793H6.66173H6.64553H6.62935H6.61318H6.59703H6.58088H6.56475H6.54864H6.53253H6.51644H6.50036H6.48429H6.46823H6.45219H6.43616H6.42015H6.40414H6.38815H6.37218H6.35621H6.34026H6.32432H6.3084H6.29248H6.27658H6.2607H6.24482H6.22896H6.21312H6.19728H6.18146H6.16566H6.14986H6.13408H6.11832H6.10256H6.08682H6.0711H6.05538H6.03968H6.024H6.00832H5.99267H5.97702H5.96139H5.94577H5.93017H5.91458H5.899H5.88344H5.86789H5.85235H5.83683H5.82132H5.80583H5.79035H5.77489H5.75943H5.744H5.72857H5.71316H5.69777H5.68239H5.66702H5.65167H5.63633H5.62101H5.6057H5.5904H5.57512H5.55986H5.5446H5.52937H5.51414H5.49894H5.48374H5.46856H5.4534H5.43825H5.42311H5.40799H5.39289H5.37779H5.36272H5.34766H5.33261H5.31758H5.30256H5.28756H5.27257H5.2576H5.24264H5.2277H5.21277H5.19786H5.18296H5.16808H5.15322H5.13836H5.12353H5.10871H5.0939H5.07911H5.06434H5.04958H5.03483H5.02011H5.00539H4.99069H4.97601H4.96135H4.94669H4.93206H4.91744H4.90284H4.88825H4.87367H4.85912H4.84458H4.83005H4.81554H4.80105H4.78657H4.77211H4.75766H4.74323H4.72882H4.71442H4.70004H4.68567H4.67133H4.65699H4.64267H4.62837H4.61409H4.59982H4.58557H4.57133H4.55711H4.54291H4.52872H4.51455H4.5004H4.48626H4.47214H4.45804H4.44395H4.42988H4.41582H4.40179H4.38776H4.37376H4.35977H4.3458H4.33185H4.31791H4.30399H4.29009H4.2762H4.26233H4.24848H4.23464H4.22083H4.20702H4.19324H4.17947H4.16572H4.15199H4.13827H4.12458H4.1109H4.09723H4.08359H4.06996H4.05634H4.04275H4.02917H4.01561H4.00207H3.98855H3.97504H3.96155H3.94808H3.93463H3.92119H3.90777H3.89437H3.88099H3.86762H3.85427H3.84094H3.82763H3.81434H3.80106H3.78781H3.77457H3.76134H3.74814H3.73495H3.72179H3.70864H3.6955H3.68239H3.6693H3.65622H3.64316H3.63012H3.6171H3.60409H3.59111H3.57814H3.56519H3.55226H3.53935H3.52646H3.51359H3.50073H3.48789H3.47507H3.46227H3.44949H3.43673H3.42399H3.41126H3.39856H3.38587H3.3732H3.36055H3.34792H3.33531H3.32272H3.31014H3.29759H3.28505H3.27254H3.26004H3.24756H3.2351H3.22266H3.21024H3.19784H3.18546H3.1731H3.16075H3.14843H3.13613H3.12384H3.11158H3.09933H3.0871H3.0749H3.06271H3.05054H3.03839H3.02627H3.01416H3.00207H2.99H2.97795H2.96592H2.95391H2.94192H2.92995H2.918H2.90607H2.89416H2.88227H2.8704H2.85855H2.84672H2.83491H2.82312H2.81135H2.7996H2.78788H2.77617H2.76448H2.75281H2.74116H2.72954H2.71793H2.70634H2.69478H2.68323H2.67171H2.6602H2.64872H2.63726H2.62581H2.61439H2.60299H2.59161H2.58025H2.56891H2.5576H2.5463H2.53502H2.52377H2.51253H2.50132H2.49013H2.47896H2.46781H2.45668H2.44557H2.43448H2.42342H2.41237H2.40135H2.39034H2.37936H2.3684H2.35747H2.34655H2.33565H2.32478H2.31393H2.3031H2.29229H2.2815H2.27073H2.25999H2.24926H2.23856H2.22788H2.21722H2.20659H2.19597H2.18538H2.17481H2.16426H2.15373H2.14322H2.13274H2.12228H2.11184H2.10142H2.09103H2.08065H2.0703H2.05997H2.04966H2.03938H2.02912H2.01888H2.00866H1.99846C1.25401 19.2468 0.834372 18.6729 0.941974 18.167C1.78295 14.2128 5.29614 11.247 9.50032 11.247C13.7045 11.247 17.2177 14.2128 18.0587 18.1669C18.1663 18.6729 17.7466 19.2468 17.0022 19.2468Z" stroke="#A8A8A8" stroke-width="1.5"/>
<circle cx="9.50036" cy="5.02233" r="3.26916" stroke="#A8A8A8" stroke-width="1.5"/>
</g>
<defs>
<clipPath id="clip0_2013_10510">
<rect width="19" height="21" fill="white"/>
</clipPath>
</defs>
</svg>
